# xmcd
#
# Track frame offsets:
#	150
#	7427
#	18979
#	29256
#	38633
#	47185
#	62638
#	71416
#	81618
#	91895
#	99397
#	111025
#	120628
#	128730
#	135782
#
# Disc length: 2089 seconds
#
# Revision: 15
# Processed by: cddbd v1.5.2PL0 Copyright (c) Steve Scherf et al.
# Submitted via: Jack! The Knife 20 Magnifico
#
DISCID=c108270f
DTITLE=La Polla Records - Ellos Dicen Mierda, Nosotros Amén
DYEAR=1990
DGENRE=Punk
TTITLE0=Penetración
TTITLE1=Balada Inculta
TTITLE2=El Suicida
TTITLE3=Kiero Un Buey
TTITLE4=Negros Pensamientos
TTITLE5=La Mula
TTITLE6=Mis Cojones Y Yo
TTITLE7=Así Es La Vida
TTITLE8=Nací Sin Carnet
TTITLE9=Bloqueo
TTITLE10=La Pipa
TTITLE11=Cachas Beybi
TTITLE12=Rock and Bilbao
TTITLE13=StupiDJaus
TTITLE14=Ellos Dicen Mierda
EXTD=La Polla Records
EXTT0=
EXTT1=
EXTT2=
EXTT3=
EXTT4=
EXTT5=
EXTT6=
EXTT7=
EXTT8=
EXTT9=
EXTT10=
EXTT11=
EXTT12=
EXTT13=
EXTT14=
PLAYORDER=
